<svg width="17" height="20" viewBox="0 0 17 20" fill="none" xmlns="http://www.w3.org/2000/svg">
<path d="M3.5 4C3.5 3.44772 3.94772 3 4.5 3H12.5C13.0523 3 13.5 3.44772 13.5 4V6C13.5 6.55228 13.0523 7 12.5 7H4.5C3.94772 7 3.5 6.55228 3.5 6V4ZM5 5.5H12V4.5H5V5.5ZM0.5 2.5C0.5 1.11929 1.61929 0 3 0H14.5C15.8807 0 17 1.11929 17 2.5V16.75C17 17.1642 16.6642 17.5 16.25 17.5H2C2 18.0523 2.44772 18.5 3 18.5H16.25C16.6642 18.5 17 18.8358 17 19.25C17 19.6642 16.6642 20 16.25 20H3C1.61929 20 0.5 18.8807 0.5 17.5V2.5ZM2 16H15.5V2.5C15.5 1.94772 15.0523 1.5 14.5 1.5H3C2.44772 1.5 2 1.94772 2 2.5V16Z" fill="#7B8CB5"/>
</svg>
