<svg width="17" height="20" viewBox="0 0 17 20" fill="none" xmlns="http://www.w3.org/2000/svg">
<path d="M14.253 11.9999C15.4957 11.9999 16.503 13.0073 16.503 14.2499V15.155C16.503 16.2487 16.0256 17.2879 15.1958 18.0003C13.6303 19.3442 11.39 20.0011 8.5 20.0011C5.6105 20.0011 3.37168 19.3445 1.80882 18.0008C0.980195 17.2884 0.50354 16.25 0.50354 15.1572V14.2499C0.50354 13.0073 1.5109 11.9999 2.75354 11.9999H14.253ZM14.253 13.4999H2.75354C2.33933 13.4999 2.00354 13.8357 2.00354 14.2499V15.1572C2.00354 15.8129 2.28953 16.4359 2.78671 16.8634C4.04479 17.945 5.9408 18.5011 8.5 18.5011C11.06 18.5011 12.9578 17.9447 14.2187 16.8622C14.7166 16.4347 15.003 15.8112 15.003 15.155V14.2499C15.003 13.8357 14.6673 13.4999 14.253 13.4999ZM8.39856 0.00733495L8.50033 0.000488281C8.88003 0.000488281 9.19382 0.282642 9.24348 0.648718L9.25033 0.750488L9.24954 1.49949L12.75 1.49999C13.9926 1.49999 15 2.50735 15 3.74999V8.25459C15 9.49723 13.9926 10.5046 12.75 10.5046H4.25C3.00736 10.5046 2 9.49723 2 8.25459V3.74999C2 2.50735 3.00736 1.49999 4.25 1.49999L7.74954 1.49949L7.75033 0.750488C7.75033 0.370793 8.03248 0.0569974 8.39856 0.00733495L8.50033 0.000488281L8.39856 0.00733495ZM12.75 2.99999H4.25C3.83579 2.99999 3.5 3.33578 3.5 3.74999V8.25459C3.5 8.6688 3.83579 9.00459 4.25 9.00459H12.75C13.1642 9.00459 13.5 8.6688 13.5 8.25459V3.74999C13.5 3.33578 13.1642 2.99999 12.75 2.99999ZM6.24929 4.49999C6.93925 4.49999 7.49858 5.05932 7.49858 5.74928C7.49858 6.43925 6.93925 6.99857 6.24929 6.99857C5.55932 6.99857 5 6.43925 5 5.74928C5 5.05932 5.55932 4.49999 6.24929 4.49999ZM10.742 4.49999C11.432 4.49999 11.9913 5.05932 11.9913 5.74928C11.9913 6.43925 11.432 6.99857 10.742 6.99857C10.0521 6.99857 9.49273 6.43925 9.49273 5.74928C9.49273 5.05932 10.0521 4.49999 10.742 4.49999Z" fill="#7B8CB5"/>
</svg>
