<svg width="24" height="24" viewBox="0 0 24 24" fill="none" xmlns="http://www.w3.org/2000/svg">
<path d="M17.628 13.8036C18.828 13.8036 19.8 14.7756 19.8 15.9756V16.8024H19.794C19.7532 17.7384 19.4964 18.9108 18.4464 19.8684C17.2992 20.916 15.318 21.6 12 21.6C8.68075 21.6 6.70075 20.916 5.55355 19.8684C4.50355 18.9108 4.24675 17.7372 4.20595 16.8024H4.19995V15.9744C4.19995 14.7756 5.17195 13.8036 6.37195 13.8036H17.628ZM7.79995 3.6C7.32256 3.6 6.86472 3.78964 6.52716 4.12721C6.18959 4.46477 5.99995 4.92261 5.99995 5.4V10.2C5.99995 10.6774 6.18959 11.1352 6.52716 11.4728C6.86472 11.8104 7.32256 12 7.79995 12H16.2C16.6773 12 17.1352 11.8104 17.4727 11.4728C17.8103 11.1352 18 10.6774 18 10.2V5.4C18 4.92261 17.8103 4.46477 17.4727 4.12721C17.1352 3.78964 16.6773 3.6 16.2 3.6H12.6V3C12.6033 2.9203 12.5902 2.84076 12.5612 2.76643C12.5322 2.6921 12.4882 2.62459 12.4318 2.56818C12.3754 2.51177 12.3079 2.4677 12.2335 2.43875C12.1592 2.4098 12.0797 2.3966 12 2.4C11.6688 2.4 11.4 2.676 11.4 3V3.6H7.79995ZM8.39995 7.8C8.39995 7.48174 8.52638 7.17651 8.75142 6.95147C8.97647 6.72643 9.28169 6.6 9.59995 6.6C9.91821 6.6 10.2234 6.72643 10.4485 6.95147C10.6735 7.17651 10.8 7.48174 10.8 7.8C10.8 8.11826 10.6735 8.42348 10.4485 8.64853C10.2234 8.87357 9.91821 9 9.59995 9C9.28169 9 8.97647 8.87357 8.75142 8.64853C8.52638 8.42348 8.39995 8.11826 8.39995 7.8ZM13.2 7.8C13.2 7.48174 13.3264 7.17651 13.5514 6.95147C13.7765 6.72643 14.0817 6.6 14.4 6.6C14.7182 6.6 15.0234 6.72643 15.2485 6.95147C15.4735 7.17651 15.6 7.48174 15.6 7.8C15.6 8.11826 15.4735 8.42348 15.2485 8.64853C15.0234 8.87357 14.7182 9 14.4 9C14.0817 9 13.7765 8.87357 13.5514 8.64853C13.3264 8.42348 13.2 8.11826 13.2 7.8Z" fill="#4F46E5"/>
</svg>
