<svg width="25" height="24" viewBox="0 0 25 24" fill="none" xmlns="http://www.w3.org/2000/svg">
<path d="M10.9166 3.5H14.4166C14.8308 3.5 15.1666 3.83579 15.1666 4.25V6H10.1666V4.25C10.1666 3.83579 10.5024 3.5 10.9166 3.5ZM8.66663 4.25V6H6.91663C5.1217 6 3.66663 7.45507 3.66663 9.25V10.75C3.66663 11.7165 4.45013 12.5 5.41663 12.5H10.6666V12C10.6666 11.4477 11.1143 11 11.6666 11H13.6666C14.2189 11 14.6666 11.4477 14.6666 12V12.5H19.9166C20.8831 12.5 21.6666 11.7165 21.6666 10.75V9.25C21.6666 7.45507 20.2116 6 18.4166 6H16.6666V4.25C16.6666 3.00736 15.6593 2 14.4166 2H10.9166C9.67399 2 8.66663 3.00736 8.66663 4.25ZM21.6666 13.4891C21.1615 13.8125 20.5609 14 19.9166 14H14.6666C14.6666 14.5523 14.2189 15 13.6666 15H11.6666C11.1143 15 10.6666 14.5523 10.6666 14H5.41663C4.7723 14 4.17178 13.8125 3.66663 13.4891V16.75C3.66663 18.5449 5.1217 20 6.91663 20H18.4166C20.2116 20 21.6666 18.5449 21.6666 16.75V13.4891Z" fill="#4F46E5"/>
</svg>
