<svg width="25" height="24" viewBox="0 0 25 24" fill="none" xmlns="http://www.w3.org/2000/svg">
<path d="M10.4166 3.5H13.9166C14.3308 3.5 14.6666 3.83579 14.6666 4.25V6H9.66663V4.25C9.66663 3.83579 10.0024 3.5 10.4166 3.5ZM8.16663 4.25V6H6.41663C4.6217 6 3.16663 7.45507 3.16663 9.25V16.75C3.16663 18.5449 4.6217 20 6.41663 20H17.9166C19.7116 20 21.1666 18.5449 21.1666 16.75V9.25C21.1666 7.45507 19.7116 6 17.9166 6H16.1666V4.25C16.1666 3.00736 15.1593 2 13.9166 2H10.4166C9.17399 2 8.16663 3.00736 8.16663 4.25ZM19.6666 9.25V10.75C19.6666 11.7165 18.8831 12.5 17.9166 12.5H14.1666V12C14.1666 11.4477 13.7189 11 13.1666 11H11.1666C10.6143 11 10.1666 11.4477 10.1666 12V12.5H6.41663C5.45013 12.5 4.66663 11.7165 4.66663 10.75V9.25C4.66663 8.2835 5.45013 7.5 6.41663 7.5H17.9166C18.8831 7.5 19.6666 8.2835 19.6666 9.25ZM19.6666 13.4891V16.75C19.6666 17.7165 18.8831 18.5 17.9166 18.5H6.41663C5.45013 18.5 4.66663 17.7165 4.66663 16.75V13.4891C5.17178 13.8125 5.7723 14 6.41663 14H10.1666C10.1666 14.5523 10.6143 15 11.1666 15H13.1666C13.7189 15 14.1666 14.5523 14.1666 14H17.9166C18.5609 14 19.1615 13.8125 19.6666 13.4891Z" fill="#7B8CB5"/>
</svg>
