<svg width="20" height="21" viewBox="0 0 20 21" fill="none" xmlns="http://www.w3.org/2000/svg">
<g id="Globe">
<path id="Shape" d="M7.98747 4.67997C7.71458 5.34269 7.48643 6.12692 7.31842 7H12.6816C12.5136 6.12692 12.2854 5.34269 12.0125 4.67997C11.7106 3.94666 11.3637 3.38614 11.0041 3.01675C10.646 2.64894 10.3069 2.5 10 2.5C9.69311 2.5 9.35398 2.64894 8.99591 3.01675C8.6363 3.38614 8.28942 3.94666 7.98747 4.67997ZM7.89053 2.78104C7.57693 3.20725 7.30036 3.72224 7.06279 4.29922C6.74205 5.07814 6.48315 5.99258 6.3012 7H2.80423C3.80285 4.95074 5.65108 3.39163 7.89053 2.78104ZM12.1095 2.78105C12.4231 3.20725 12.6996 3.72225 12.9372 4.29922C13.2579 5.07814 13.5169 5.99258 13.6988 7H17.1958C16.1972 4.95074 14.3489 3.39163 12.1095 2.78105ZM17.6016 8H13.85C13.9479 8.7949 14 9.63416 14 10.5C14 11.3658 13.9479 12.2051 13.85 13H17.6016C17.8601 12.2135 18 11.3731 18 10.5C18 9.62694 17.8601 8.78655 17.6016 8ZM17.1958 14H13.6988C13.5169 15.0074 13.2579 15.9219 12.9372 16.7008C12.6996 17.2778 12.4231 17.7928 12.1095 18.219C14.3489 17.6084 16.1972 16.0493 17.1958 14ZM10 18.5C10.3069 18.5 10.646 18.3511 11.0041 17.9832C11.3637 17.6139 11.7106 17.0533 12.0125 16.32C12.2854 15.6573 12.5136 14.8731 12.6816 14H7.31842C7.48643 14.8731 7.71458 15.6573 7.98747 16.32C8.28942 17.0533 8.6363 17.6139 8.99591 17.9832C9.35398 18.3511 9.69311 18.5 10 18.5ZM7.89053 18.219C5.65107 17.6084 3.80285 16.0493 2.80423 14H6.3012C6.48315 15.0074 6.74205 15.9219 7.06279 16.7008C7.30036 17.2778 7.57693 17.7928 7.89053 18.219ZM2.39838 13H6.14996C6.0521 12.2051 6 11.3658 6 10.5C6 9.63416 6.0521 8.7949 6.14996 8H2.39838C2.13985 8.78655 2 9.62694 2 10.5C2 11.3731 2.13985 12.2135 2.39838 13ZM7 10.5C7 9.6253 7.0557 8.78549 7.15793 8H12.8421C12.9443 8.78549 13 9.6253 13 10.5C13 11.3747 12.9443 12.2145 12.8421 13H7.15793C7.0557 12.2145 7 11.3747 7 10.5Z" fill="#7B8CB5"/>
</g>
</svg>
