<svg width="20" height="21" viewBox="0 0 20 21" fill="none" xmlns="http://www.w3.org/2000/svg">
<g id="Video Clip Multiple">
<path id="Shape" d="M4.5 3.5C3.11929 3.5 2 4.61929 2 6V13C2 14.3807 3.11929 15.5 4.5 15.5H13.5C14.8807 15.5 16 14.3807 16 13V6C16 4.61929 14.8807 3.5 13.5 3.5H4.5ZM7 7.25577C7 6.65383 7.67339 6.29715 8.17135 6.63531L11.7817 9.08711C12.0736 9.28535 12.0739 9.71545 11.7822 9.91404L8.17209 12.372C7.6742 12.711 7 12.3544 7 11.752V7.25577ZM6.50018 17.5002C5.68227 17.5002 4.9561 17.1074 4.5 16.5002H14.0002C15.657 16.5002 17.0002 15.157 17.0002 13.5002V6C17.6074 6.4561 18.0002 7.18227 18.0002 8.00018V13.5002C18.0002 15.7093 16.2093 17.5002 14.0002 17.5002H6.50018Z" fill="#7B8CB5"/>
</g>
</svg>
