<svg width="50" height="50" viewBox="0 0 50 50" fill="none" xmlns="http://www.w3.org/2000/svg">
<rect width="50" height="50" rx="8" fill="#A9B4D0"/>
<path d="M16 16.25C16 15.0074 17.0074 14 18.25 14H26.25C27.4926 14 28.5 15.0074 28.5 16.25V21.5H29.75C30.9926 21.5 32 22.5074 32 23.75V33.25C32 33.6642 31.6642 34 31.25 34H28.5V30.25C28.5 29.5596 27.9404 29 27.25 29H20.75C20.0596 29 19.5 29.5596 19.5 30.25V34H16.75C16.3358 34 16 33.6642 16 33.25V16.25ZM27 30.5V34H24.75V30.5H27ZM23.25 30.5V34H21V30.5H23.25ZM19.5 18.5C19.5 19.0523 19.9477 19.5 20.5 19.5C21.0523 19.5 21.5 19.0523 21.5 18.5C21.5 17.9477 21.0523 17.5 20.5 17.5C19.9477 17.5 19.5 17.9477 19.5 18.5ZM20.5 24.5C19.9477 24.5 19.5 24.9477 19.5 25.5C19.5 26.0523 19.9477 26.5 20.5 26.5C21.0523 26.5 21.5 26.0523 21.5 25.5C21.5 24.9477 21.0523 24.5 20.5 24.5ZM20.5 21C19.9477 21 19.5 21.4477 19.5 22C19.5 22.5523 19.9477 23 20.5 23C21.0523 23 21.5 22.5523 21.5 22C21.5 21.4477 21.0523 21 20.5 21ZM24 17.5C23.4477 17.5 23 17.9477 23 18.5C23 19.0523 23.4477 19.5 24 19.5C24.5523 19.5 25 19.0523 25 18.5C25 17.9477 24.5523 17.5 24 17.5ZM24 24.5C23.4477 24.5 23 24.9477 23 25.5C23 26.0523 23.4477 26.5 24 26.5C24.5523 26.5 25 26.0523 25 25.5C25 24.9477 24.5523 24.5 24 24.5ZM27.5 24.5C26.9477 24.5 26.5 24.9477 26.5 25.5C26.5 26.0523 26.9477 26.5 27.5 26.5C28.0523 26.5 28.5 26.0523 28.5 25.5C28.5 24.9477 28.0523 24.5 27.5 24.5ZM24 21C23.4477 21 23 21.4477 23 22C23 22.5523 23.4477 23 24 23C24.5523 23 25 22.5523 25 22C25 21.4477 24.5523 21 24 21Z" fill="white"/>
</svg>
