<svg width="20" height="21" viewBox="0 0 20 21" fill="none" xmlns="http://www.w3.org/2000/svg">
<g id="Arrow Sync Circle">
<path id="Shape" d="M10 18.5C5.58172 18.5 2 14.9183 2 10.5C2 6.08172 5.58172 2.5 10 2.5C14.4183 2.5 18 6.08172 18 10.5C18 14.9183 14.4183 18.5 10 18.5ZM13.4999 10.5C13.776 10.5 13.9999 10.2761 13.9999 10V8C13.9999 7.72386 13.776 7.5 13.4999 7.5C13.2237 7.5 12.9999 7.72386 12.9999 8V8.69617C12.3877 7.68015 11.2737 7 10.0001 7C8.96342 7 8.03154 7.4513 7.39138 8.16654C7.20721 8.37231 7.22472 8.6884 7.43049 8.87257C7.63625 9.05673 7.95235 9.03922 8.13651 8.83346C8.59499 8.3212 9.25968 8 10.0001 8C11.0245 8 11.9062 8.61648 12.2922 9.5H11.4999C11.2237 9.5 10.9999 9.72386 10.9999 10C10.9999 10.2761 11.2237 10.5 11.4999 10.5H13.4999ZM6.00012 11V13C6.00012 13.2761 6.22398 13.5 6.50012 13.5C6.77626 13.5 7.00012 13.2761 7.00012 13V12.3037C7.61231 13.3198 8.7263 14 10.0001 14C11.0367 14 11.9686 13.5487 12.6087 12.8335C12.7929 12.6277 12.7754 12.3116 12.5696 12.1274C12.3639 11.9433 12.0478 11.9608 11.8636 12.1665C11.4051 12.6788 10.7404 13 10.0001 13C8.97557 13 8.09394 12.3835 7.70793 11.5H8.50012C8.77627 11.5 9.00012 11.2761 9.00012 11C9.00012 10.7239 8.77627 10.5 8.50012 10.5H6.50012C6.22398 10.5 6.00012 10.7239 6.00012 11Z" fill="#7B8CB5"/>
</g>
</svg>
