<svg width="24" height="24" viewBox="0 0 24 24" fill="none" xmlns="http://www.w3.org/2000/svg">
<path d="M16.6875 4.1875C16.6875 2.46161 18.0866 1.0625 19.8125 1.0625C21.5384 1.0625 22.9375 2.46161 22.9375 4.1875V19.8125C22.9375 21.5384 21.5384 22.9375 19.8125 22.9375C18.0866 22.9375 16.6875 21.5384 16.6875 19.8125V4.1875ZM1.0625 13.5625C1.0625 11.8366 2.46161 10.4375 4.1875 10.4375C5.91339 10.4375 7.3125 11.8366 7.3125 13.5625V19.8125C7.3125 21.5384 5.91339 22.9375 4.1875 22.9375C2.46161 22.9375 1.0625 21.5384 1.0625 19.8125V13.5625ZM12 7.3125C10.2741 7.3125 8.875 8.71161 8.875 10.4375V19.8125C8.875 21.5384 10.2741 22.9375 12 22.9375C13.7259 22.9375 15.125 21.5384 15.125 19.8125V10.4375C15.125 8.71161 13.7259 7.3125 12 7.3125Z" fill="#4F46E5"/>
</svg>
